<svg width="100" height="100" viewBox="0 0 100 100" fill="none" xmlns="http://www.w3.org/2000/svg">
<path fill-rule="evenodd" clip-rule="evenodd" d="M28.1232 19.6597L14.1232 30.8866C13.4132 31.456 13 32.3169 13 33.227V78.9975C13 79.68 13.2327 80.342 13.6596 80.8744C14.6961 82.1669 16.5843 82.3745 17.8768 81.3379L31.8768 70.111C32.5868 69.5417 33 68.6807 33 67.7706V60.6532C34.5886 59.3079 36.2552 58.0679 37.9998 56.9329V78.9975C37.9998 79.68 38.2324 80.342 38.6593 80.8744C39.6959 82.1669 41.584 82.3745 42.8766 81.3379L56.8766 70.111C57.5866 69.5417 57.9997 68.6807 57.9997 67.7706V47.4708C59.7348 46.4887 61.4016 45.4137 63 44.246V78.9975C63 79.68 63.2327 80.342 63.6596 80.8744C64.6961 82.1669 66.5842 82.3745 67.8768 81.3379L81.8768 70.111C82.5868 69.5417 83 68.6807 83 67.7706V22.0001C83 21.3177 82.7673 20.6557 82.3404 20.1233C81.3038 18.8307 79.4157 18.6232 78.1232 19.6597L64.1232 30.8866C63.4132 31.456 63 32.3169 63 33.227V41.7414C61.4063 42.9809 59.7395 44.1195 57.9997 45.1575V22.0001C57.9997 21.3177 57.7671 20.6557 57.3401 20.1233C56.3036 18.8307 54.4155 18.6232 53.1229 19.6597L39.1229 30.8866C38.4129 31.456 37.9998 32.3169 37.9998 33.227V54.5658C36.2606 55.6366 34.594 56.804 33 58.0676V22.0001C33 21.3177 32.7673 20.6557 32.3404 20.1233C31.3038 18.8307 29.4157 18.6232 28.1232 19.6597Z" fill="#111111"/>
</svg>
